<svg xmlns="http://www.w3.org/2000/svg" xmlns:xlink="http://www.w3.org/1999/xlink" width="500" zoomAndPan="magnify" viewBox="0 0 375 374.999991" height="500" preserveAspectRatio="xMidYMid meet" version="1.0"><defs><clipPath id="38e39837ea"><path d="M 54.949219 54.949219 L 319.921875 54.949219 L 319.921875 319.921875 L 54.949219 319.921875 Z M 54.949219 54.949219 " clip-rule="nonzero"/></clipPath></defs><g clip-path="url(#38e39837ea)"><path fill="#ffffff" d="M 319.921875 187.4375 C 319.921875 189.605469 319.867188 191.769531 319.761719 193.9375 C 319.65625 196.101562 319.496094 198.265625 319.285156 200.421875 C 319.070312 202.578125 318.804688 204.730469 318.488281 206.875 C 318.167969 209.019531 317.796875 211.15625 317.375 213.28125 C 316.953125 215.410156 316.476562 217.523438 315.949219 219.628906 C 315.425781 221.730469 314.847656 223.820312 314.214844 225.894531 C 313.585938 227.96875 312.90625 230.027344 312.175781 232.070312 C 311.445312 234.109375 310.667969 236.132812 309.835938 238.136719 C 309.007812 240.140625 308.128906 242.121094 307.203125 244.082031 C 306.273438 246.039062 305.300781 247.976562 304.277344 249.890625 C 303.253906 251.800781 302.1875 253.6875 301.074219 255.546875 C 299.957031 257.40625 298.796875 259.238281 297.59375 261.039062 C 296.390625 262.84375 295.140625 264.617188 293.847656 266.359375 C 292.558594 268.097656 291.222656 269.808594 289.847656 271.484375 C 288.472656 273.160156 287.058594 274.800781 285.601562 276.40625 C 284.144531 278.015625 282.652344 279.585938 281.117188 281.117188 C 279.585938 282.652344 278.015625 284.144531 276.40625 285.601562 C 274.800781 287.058594 273.160156 288.472656 271.484375 289.847656 C 269.808594 291.222656 268.097656 292.558594 266.359375 293.847656 C 264.617188 295.140625 262.84375 296.390625 261.042969 297.59375 C 259.238281 298.796875 257.40625 299.957031 255.546875 301.074219 C 253.6875 302.1875 251.800781 303.253906 249.890625 304.277344 C 247.976562 305.300781 246.039062 306.273438 244.082031 307.203125 C 242.121094 308.128906 240.140625 309.007812 238.136719 309.835938 C 236.132812 310.667969 234.109375 311.445312 232.070312 312.175781 C 230.027344 312.90625 227.96875 313.585938 225.894531 314.214844 C 223.820312 314.847656 221.730469 315.425781 219.628906 315.949219 C 217.523438 316.476562 215.410156 316.953125 213.28125 317.375 C 211.15625 317.796875 209.019531 318.167969 206.875 318.488281 C 204.730469 318.804688 202.578125 319.070312 200.421875 319.285156 C 198.265625 319.496094 196.101562 319.65625 193.9375 319.761719 C 191.769531 319.867188 189.605469 319.921875 187.4375 319.921875 C 185.269531 319.921875 183.101562 319.867188 180.933594 319.761719 C 178.769531 319.65625 176.609375 319.496094 174.449219 319.285156 C 172.292969 319.070312 170.140625 318.804688 167.996094 318.488281 C 165.851562 318.167969 163.714844 317.796875 161.589844 317.375 C 159.464844 316.953125 157.347656 316.476562 155.246094 315.949219 C 153.140625 315.425781 151.050781 314.847656 148.976562 314.214844 C 146.902344 313.585938 144.84375 312.90625 142.804688 312.175781 C 140.761719 311.445312 138.738281 310.667969 136.738281 309.835938 C 134.734375 309.007812 132.75 308.128906 130.792969 307.203125 C 128.832031 306.273438 126.894531 305.300781 124.984375 304.277344 C 123.070312 303.253906 121.183594 302.1875 119.324219 301.074219 C 117.464844 299.957031 115.632812 298.796875 113.832031 297.59375 C 112.027344 296.390625 110.257812 295.140625 108.515625 293.847656 C 106.773438 292.558594 105.066406 291.222656 103.386719 289.847656 C 101.710938 288.472656 100.070312 287.058594 98.464844 285.601562 C 96.859375 284.144531 95.289062 282.652344 93.753906 281.117188 C 92.222656 279.585938 90.726562 278.015625 89.269531 276.40625 C 87.816406 274.800781 86.398438 273.160156 85.023438 271.484375 C 83.648438 269.808594 82.316406 268.097656 81.023438 266.359375 C 79.730469 264.617188 78.484375 262.84375 77.277344 261.039062 C 76.074219 259.238281 74.914062 257.40625 73.800781 255.546875 C 72.683594 253.6875 71.617188 251.800781 70.59375 249.890625 C 69.574219 247.976562 68.597656 246.039062 67.671875 244.082031 C 66.742188 242.121094 65.867188 240.140625 65.035156 238.136719 C 64.207031 236.132812 63.425781 234.109375 62.695312 232.070312 C 61.964844 230.027344 61.285156 227.96875 60.65625 225.894531 C 60.027344 223.820312 59.449219 221.730469 58.921875 219.628906 C 58.394531 217.523438 57.917969 215.410156 57.496094 213.28125 C 57.074219 211.15625 56.703125 209.019531 56.386719 206.875 C 56.066406 204.730469 55.800781 202.578125 55.589844 200.421875 C 55.375 198.265625 55.21875 196.101562 55.109375 193.9375 C 55.003906 191.769531 54.949219 189.605469 54.949219 187.4375 C 54.949219 185.269531 55.003906 183.101562 55.109375 180.933594 C 55.21875 178.769531 55.375 176.609375 55.589844 174.449219 C 55.800781 172.292969 56.066406 170.140625 56.386719 167.996094 C 56.703125 165.851562 57.074219 163.714844 57.496094 161.589844 C 57.917969 159.464844 58.394531 157.347656 58.921875 155.246094 C 59.449219 153.140625 60.027344 151.050781 60.65625 148.976562 C 61.285156 146.902344 61.964844 144.84375 62.695312 142.804688 C 63.425781 140.761719 64.207031 138.738281 65.035156 136.738281 C 65.867188 134.734375 66.742188 132.75 67.671875 130.792969 C 68.597656 128.832031 69.574219 126.894531 70.59375 124.984375 C 71.617188 123.070312 72.683594 121.183594 73.800781 119.324219 C 74.914062 117.464844 76.074219 115.632812 77.277344 113.832031 C 78.484375 112.027344 79.730469 110.257812 81.023438 108.515625 C 82.316406 106.773438 83.648438 105.066406 85.023438 103.386719 C 86.398438 101.710938 87.816406 100.070312 89.269531 98.464844 C 90.726562 96.859375 92.222656 95.289062 93.753906 93.753906 C 95.289062 92.222656 96.859375 90.726562 98.464844 89.269531 C 100.070312 87.816406 101.710938 86.398438 103.386719 85.023438 C 105.066406 83.648438 106.773438 82.316406 108.515625 81.023438 C 110.257812 79.730469 112.027344 78.484375 113.832031 77.277344 C 115.632812 76.074219 117.464844 74.914062 119.324219 73.800781 C 121.183594 72.683594 123.070312 71.617188 124.984375 70.59375 C 126.894531 69.574219 128.832031 68.597656 130.792969 67.671875 C 132.75 66.742188 134.734375 65.867188 136.738281 65.035156 C 138.738281 64.207031 140.761719 63.425781 142.804688 62.695312 C 144.84375 61.964844 146.902344 61.285156 148.976562 60.65625 C 151.050781 60.027344 153.140625 59.449219 155.246094 58.921875 C 157.347656 58.394531 159.464844 57.917969 161.589844 57.496094 C 163.714844 57.074219 165.851562 56.703125 167.996094 56.386719 C 170.140625 56.066406 172.292969 55.800781 174.449219 55.589844 C 176.609375 55.375 178.769531 55.21875 180.933594 55.109375 C 183.101562 55.003906 185.269531 54.949219 187.4375 54.949219 C 189.605469 54.949219 191.769531 55.003906 193.9375 55.109375 C 196.101562 55.21875 198.265625 55.375 200.421875 55.589844 C 202.578125 55.800781 204.730469 56.066406 206.875 56.386719 C 209.019531 56.703125 211.15625 57.074219 213.28125 57.496094 C 215.410156 57.917969 217.523438 58.394531 219.628906 58.921875 C 221.730469 59.449219 223.820312 60.027344 225.894531 60.65625 C 227.96875 61.285156 230.027344 61.964844 232.070312 62.695312 C 234.109375 63.425781 236.132812 64.207031 238.136719 65.035156 C 240.140625 65.867188 242.121094 66.742188 244.082031 67.671875 C 246.039062 68.597656 247.976562 69.574219 249.890625 70.59375 C 251.800781 71.617188 253.6875 72.683594 255.546875 73.800781 C 257.40625 74.914062 259.238281 76.074219 261.042969 77.277344 C 262.84375 78.484375 264.617188 79.730469 266.359375 81.023438 C 268.097656 82.316406 269.808594 83.648438 271.484375 85.023438 C 273.160156 86.398438 274.800781 87.816406 276.40625 89.269531 C 278.015625 90.726562 279.585938 92.222656 281.117188 93.753906 C 282.652344 95.289062 284.144531 96.859375 285.601562 98.464844 C 287.058594 100.070312 288.472656 101.710938 289.847656 103.386719 C 291.222656 105.066406 292.558594 106.773438 293.847656 108.515625 C 295.140625 110.257812 296.390625 112.027344 297.59375 113.832031 C 298.796875 115.632812 299.957031 117.464844 301.074219 119.324219 C 302.1875 121.183594 303.253906 123.070312 304.277344 124.984375 C 305.300781 126.894531 306.273438 128.832031 307.203125 130.792969 C 308.128906 132.75 309.007812 134.734375 309.835938 136.738281 C 310.667969 138.738281 311.445312 140.761719 312.175781 142.804688 C 312.90625 144.84375 313.585938 146.902344 314.214844 148.976562 C 314.847656 151.050781 315.425781 153.140625 315.949219 155.246094 C 316.476562 157.347656 316.953125 159.464844 317.375 161.589844 C 317.796875 163.714844 318.167969 165.851562 318.488281 167.996094 C 318.804688 170.140625 319.070312 172.292969 319.285156 174.449219 C 319.496094 176.609375 319.65625 178.769531 319.761719 180.933594 C 319.867188 183.101562 319.921875 185.269531 319.921875 187.4375 Z M 319.921875 187.4375 " fill-opacity="1" fill-rule="nonzero"/></g><path fill="#7ed957" d="M 296.78125 187.535156 C 296.808594 189.5625 295.367188 191.019531 293.582031 191.691406 C 293.582031 191.691406 120.117188 278.492188 120.117188 278.492188 C 116.980469 280.242188 113.027344 276.882812 114.304688 273.464844 C 114.304688 273.464844 141.582031 191.691406 141.582031 191.691406 L 142.953125 187.535156 L 141.582031 183.382812 L 114.304688 101.605469 C 113.066406 98.210938 116.929688 94.835938 120.117188 96.578125 C 120.117188 96.578125 293.582031 183.382812 293.582031 183.382812 C 295.328125 184.054688 296.851562 185.507812 296.78125 187.535156 Z M 296.78125 187.535156 " fill-opacity="1" fill-rule="nonzero"/><path fill="#ffffff" d="M 120.105469 278.511719 C 120.105469 278.511719 294.484375 191.25 294.484375 191.25 C 297.46875 189.863281 297.519531 185.203125 294.484375 183.816406 L 120.105469 96.558594 C 116.96875 94.875 113.050781 98.203125 114.308594 101.589844 C 114.308594 101.589844 142.933594 187.535156 142.933594 187.535156 L 114.308594 273.480469 C 113.074219 276.828125 116.949219 280.238281 120.105469 278.511719 Z M 125.359375 108.480469 L 275.042969 183.382812 L 150.308594 183.382812 Z M 150.308594 191.691406 L 275.042969 191.691406 L 125.359375 266.59375 Z M 150.308594 191.691406 " fill-opacity="1" fill-rule="nonzero"/></svg>